<?xml version="1.0" encoding="utf-8"?>
<!-- Generator: Adobe Illustrator 21.0.2, SVG Export Plug-In . SVG Version: 6.00 Build 0)  -->
<svg version="1.1" id="Layer_1" xmlns="http://www.w3.org/2000/svg" xmlns:xlink="http://www.w3.org/1999/xlink" x="0px" y="0px"
	 viewBox="0 0 268 69" style="enable-background:new 0 0 268 69;" xml:space="preserve">
<style type="text/css">
	.st0{fill:#FFFFFF;}
</style>
<g>
	<path class="st0" d="M5.2,37.1c0,8.3,3.3,17.3,8.8,23.9c3.8,4.7,6,5.3,11.6,3c3.4-1.4,6.7-1.5,10.1,0c0.6,0.3,1.2,0.5,1.8,0.7
		c3.3,1.2,6.1,0.5,8.4-2c3.4-3.6,5.8-7.8,7.5-12.4c0.3-0.9,0.1-1.4-0.7-2c-5.3-3.3-7.7-8.8-6.6-14.8c0.6-3.4,2.4-6.1,5.1-8.2
		c0.8-0.6,1-1.2,0.2-1.9c-0.8-0.8-1.5-1.6-2.4-2.3c-4.4-3-9-3.4-14-1.6c-6.1,2.2-4.3,2.3-10.4,0c-5.4-2.1-10-0.8-14,3.1
		C6.5,26.4,5.2,31.5,5.2,37.1z M75.8,35.5c0.6,0.3,0.7,0.9,0.8,1.3c2.6,5.9,5.2,11.9,7.8,17.8c1.7,4,1.7,3.9,6,3.9
		c1.2,0,1.7-0.4,2.2-1.5c2.9-6.8,5.9-13.6,8.8-20.4c0.2-0.4,0.2-1,0.8-1.2c0.4,0.6,0.2,1.1,0.2,1.7c0,8.6,0,17.1,0,25.7
		c0,1.6,0.1,1.8,1.7,1.8c1.7,0,3.4,0,5.1,0c1.1,0,1.6-0.3,1.6-1.5c0-14.2,0-28.3,0-42.5c0-1.1-0.5-1.5-1.5-1.5c-2.1,0-4.2,0.1-6.2,0
		c-1.3-0.1-2,0.5-2.5,1.6c-3.5,8.3-7.1,16.6-10.7,24.9c-0.2,0.5-0.3,1.3-0.8,1.3c-0.6,0-0.6-0.8-0.9-1.3C84.6,37.3,81,29,77.4,20.6
		c-0.5-1.1-1-1.5-2.2-1.4c-1.9,0.1-3.8,0-5.7,0c-2.2,0-2.2,0-2.2,2.2c0,12.8,0,25.7,0,38.5c0,1.1,0,2.3,0,3.4c0,0.9,0.4,1.3,1.3,1.3
		c1.7,0,3.4,0,5.1,0c1.8,0,1.8-0.1,1.8-1.9c0-8.5,0-17,0-25.6C75.5,36.6,75.4,36.1,75.8,35.5z M155.8,35.3c0-4.8,0-9.7,0-14.5
		c0-1.2-0.4-1.7-1.6-1.6c-1.9,0.1-3.9,0-5.8,0c-1.8,0-1.9,0.1-1.9,1.9c0,8.9,0,17.7,0,26.6c0,1.4-0.1,2.7-0.5,4
		c-1.1,3.6-4,5.7-8,5.7c-4.1,0-7-1.9-8.2-5.5c-0.5-1.5-0.6-3-0.6-4.5c0-8.8,0-17.6,0-26.4c0-1.2-0.4-1.7-1.6-1.7
		c-2.1,0.1-4.2,0.1-6.2,0c-1.1,0-1.5,0.4-1.5,1.5c0,9.6-0.1,19.2,0.1,28.7c0.1,8,4.6,13.6,12.1,15.4c3.4,0.8,6.9,0.9,10.3,0.3
		c8.5-1.6,13.4-7.4,13.5-16.1C155.9,44.4,155.8,39.8,155.8,35.3z M168.2,51.5c-0.9,0-1.8,0-2.7,0c-0.1,0-0.2,0-0.3,0
		c-1.5,0-1.7,0.3-1.5,1.8c0.7,4.8,3.1,8.4,7.6,10.3c6.6,2.8,13.3,2.7,19.9-0.3c5-2.3,7.7-7.4,7.3-13.1c-0.4-5.7-3.3-9.3-9-11.2
		c-2.3-0.8-4.8-1.2-7.1-1.8c-2-0.5-4-0.7-5.8-1.8c-2.8-1.6-3.4-5.1-1.3-7.5c0.8-1,1.9-1.5,3.1-1.8c4-1,9.8,0,10.7,5
		c0.1,0.7,0.7,0.7,1.3,0.7c2,0,4,0,6,0c1.4,0,1.6-0.2,1.4-1.6c-0.6-4.3-2.8-7.7-6.7-9.6c-6.7-3.4-13.5-3.3-20.1,0.3
		c-4.9,2.8-6.7,7.4-6.1,12.9c0.5,5.1,3.4,8.2,8,10c1.1,0.4,2.2,0.7,3.3,1c3.2,0.8,6.5,1.3,9.6,2.5c2.5,1,3.6,2.4,3.5,4.7
		c0,2.4-1.3,4.3-3.7,5.1c-3,1-6,1-8.9-0.2c-1.5-0.6-2.9-1.6-3.3-3c-0.6-2.5-2.2-2.6-4.2-2.4C168.9,51.5,168.6,51.5,168.2,51.5z
		 M236.3,42c0-1.7-0.1-3.3,0-5c0.1-2.1,0.6-4.1,1.5-6c1.7-3.4,4.8-5,8.8-4.6c3.5,0.4,6.1,2.9,6.9,6.5c0.1,0.4,0.2,0.8,0.2,1.3
		c0,0.8,0.5,1.1,1.2,1.1c2.2,0,4.3,0,6.5,0c0.9,0,1.3-0.4,1.3-1.3c0-2.7-0.7-5.3-2.1-7.6c-2.9-4.9-7.4-7.4-12.9-8
		c-10.2-1.1-18.4,3.7-20.5,14.6c-1.1,5.8-1,11.7-0.1,17.5c0.6,3.9,2.2,7.5,5.2,10.3c6.5,6.1,18.4,6.3,25.2,0.5
		c3.3-2.9,5-6.6,5.2-10.9c0-1.1-0.4-1.5-1.5-1.5c-1.8,0-3.6,0-5.5,0c-1.8,0-1.8,0-2.2,1.8c-0.7,3.7-3.1,6-6.5,6.6
		c-4.9,0.8-8.6-1.5-10.1-6.2C236.1,48.1,236.2,45,236.3,42z M217.2,41.9c0-7,0-14.1,0-21.1c0-1.2-0.4-1.7-1.6-1.6
		c-2.1,0.1-4.2,0.1-6.2,0c-1.2,0-1.6,0.5-1.6,1.6c0,2.4,0,4.7,0,7.1c0,11.7,0,23.3,0,35c0,1.7,0.1,1.8,1.8,1.8c1.9,0,3.9,0,5.8,0
		c1.6,0,1.7-0.1,1.7-1.8C217.2,55.9,217.2,48.9,217.2,41.9z M41.4,6.2c0.1-2.8-0.2-3.1-2-2.5c-5.1,1.6-8.3,4.9-9.7,10
		c-0.3,1.2-0.9,2.8,0.1,3.6c1.1,0.9,2.6,0.2,3.8-0.4C38.5,14.5,40.8,10.5,41.4,6.2z"/>
	<path class="st0" d="M5.2,37.1c0-5.5,1.3-10.6,5.4-14.6c4-3.8,8.7-5.1,14-3.1c6.1,2.3,4.2,2.2,10.4,0c5-1.8,9.6-1.4,14,1.6
		c0.9,0.6,1.7,1.4,2.4,2.3c0.7,0.8,0.6,1.3-0.2,1.9c-2.8,2-4.5,4.8-5.1,8.2C45,39.5,47.4,45,52.7,48.2c0.8,0.5,1.1,1,0.7,2
		c-1.7,4.6-4.1,8.8-7.5,12.4c-2.3,2.5-5.2,3.2-8.4,2c-0.6-0.2-1.2-0.4-1.8-0.7c-3.4-1.5-6.7-1.4-10.1,0c-5.6,2.3-7.7,1.7-11.6-3
		C8.6,54.4,5.3,45.3,5.2,37.1z"/>
	<path class="st0" d="M75.8,35.5c-0.4,0.6-0.2,1.2-0.2,1.7c0,8.5,0,17,0,25.6c0,1.8-0.1,1.9-1.8,1.9c-1.7,0-3.4,0-5.1,0
		c-0.9,0-1.3-0.4-1.3-1.3c0-1.1,0-2.3,0-3.4c0-12.8,0-25.7,0-38.5c0-2.2,0-2.2,2.2-2.2c1.9,0,3.8,0.1,5.7,0c1.2,0,1.7,0.4,2.2,1.4
		C81,29,84.6,37.3,88.2,45.7c0.2,0.5,0.3,1.3,0.9,1.3c0.6,0,0.6-0.8,0.8-1.3c3.6-8.3,7.2-16.6,10.7-24.9c0.5-1.2,1.1-1.7,2.5-1.6
		c2.1,0.1,4.2,0.1,6.2,0c1.1,0,1.5,0.4,1.5,1.5c0,14.2,0,28.3,0,42.5c0,1.2-0.5,1.6-1.6,1.5c-1.7-0.1-3.4,0-5.1,0
		c-1.6,0-1.7-0.1-1.7-1.8c0-8.6,0-17.1,0-25.7c0-0.5,0.1-1.1-0.2-1.7c-0.6,0.2-0.6,0.8-0.8,1.2c-3,6.8-5.9,13.6-8.8,20.4
		c-0.4,1-1,1.5-2.2,1.5c-4.3,0-4.3,0-6-3.9c-2.6-5.9-5.2-11.9-7.8-17.8C76.4,36.3,76.3,35.8,75.8,35.5z"/>
	<path class="st0" d="M155.8,35.3c0,4.6,0.1,9.2,0,13.7c-0.1,8.7-5,14.5-13.5,16.1c-3.5,0.6-6.9,0.6-10.3-0.3
		c-7.5-1.8-12-7.4-12.1-15.4c-0.1-9.6,0-19.2-0.1-28.7c0-1.1,0.4-1.5,1.5-1.5c2.1,0,4.2,0.1,6.2,0c1.2,0,1.6,0.5,1.6,1.7
		c0,8.8,0,17.6,0,26.4c0,1.5,0.1,3,0.6,4.5c1.2,3.6,4.1,5.6,8.2,5.5c4,0,6.9-2.1,8-5.7c0.4-1.3,0.5-2.6,0.5-4c0-8.9,0-17.7,0-26.6
		c0-1.8,0.1-1.8,1.9-1.9c1.9,0,3.9,0,5.8,0c1.2,0,1.7,0.4,1.6,1.6C155.8,25.6,155.8,30.4,155.8,35.3z"/>
	<path class="st0" d="M168.2,51.5c0.3,0,0.7,0,1,0c2-0.2,3.6-0.1,4.2,2.4c0.4,1.5,1.8,2.4,3.3,3c2.9,1.2,6,1.3,8.9,0.2
		c2.4-0.8,3.7-2.7,3.7-5.1c0-2.3-1-3.7-3.5-4.7c-3.1-1.2-6.4-1.7-9.6-2.5c-1.1-0.3-2.2-0.6-3.3-1c-4.6-1.8-7.6-5-8-10
		c-0.5-5.5,1.2-10.1,6.1-12.9c6.6-3.7,13.4-3.7,20.1-0.3c3.9,2,6.1,5.3,6.7,9.6c0.2,1.3,0,1.6-1.4,1.6c-2,0-4,0-6,0
		c-0.6,0-1.2,0-1.3-0.7c-0.9-5-6.7-6.1-10.7-5c-1.2,0.3-2.3,0.9-3.1,1.8c-2.1,2.4-1.6,5.9,1.3,7.5c1.8,1,3.8,1.3,5.8,1.8
		c2.4,0.6,4.8,1,7.1,1.8c5.7,1.9,8.5,5.5,9,11.2c0.4,5.6-2.3,10.7-7.3,13.1c-6.5,3-13.2,3.2-19.9,0.3c-4.4-1.9-6.9-5.5-7.6-10.3
		c-0.2-1.5,0-1.7,1.5-1.8c0.1,0,0.2,0,0.3,0C166.5,51.5,167.4,51.5,168.2,51.5z"/>
	<path class="st0" d="M236.3,42c-0.1,3-0.2,6,0.8,8.9c1.5,4.7,5.2,7,10.1,6.2c3.4-0.5,5.8-2.9,6.5-6.6c0.4-1.8,0.4-1.8,2.2-1.8
		c1.8,0,3.6,0,5.5,0c1.1,0,1.5,0.4,1.5,1.5c-0.2,4.4-1.9,8.1-5.2,10.9c-6.7,5.8-18.7,5.6-25.2-0.5c-3-2.8-4.5-6.4-5.2-10.3
		c-0.9-5.8-1-11.7,0.1-17.5c2.1-10.8,10.2-15.6,20.5-14.6c5.5,0.6,10,3,12.9,8c1.4,2.4,2,4.9,2.1,7.6c0,0.9-0.3,1.3-1.3,1.3
		c-2.2,0-4.3,0-6.5,0c-0.8,0-1.2-0.3-1.2-1.1c0-0.4-0.1-0.8-0.2-1.3c-0.8-3.6-3.4-6.1-6.9-6.5c-4-0.5-7.1,1.1-8.8,4.6
		c-1,1.9-1.4,3.9-1.5,6C236.2,38.7,236.3,40.4,236.3,42z"/>
	<path class="st0" d="M217.2,41.9c0,7,0,14,0,21c0,1.7-0.1,1.8-1.7,1.8c-1.9,0-3.9,0-5.8,0c-1.7,0-1.8-0.1-1.8-1.8
		c0-11.7,0-23.3,0-35c0-2.4,0-4.7,0-7.1c0-1.1,0.4-1.6,1.6-1.6c2.1,0.1,4.2,0.1,6.2,0c1.2,0,1.6,0.4,1.6,1.6
		C217.2,27.8,217.2,34.8,217.2,41.9z"/>
	<path class="st0" d="M41.4,6.2c-0.6,4.3-2.9,8.4-7.7,10.8c-1.2,0.6-2.8,1.2-3.8,0.4c-1-0.8-0.4-2.4-0.1-3.6c1.4-5.1,4.6-8.5,9.7-10
		C41.2,3.1,41.5,3.3,41.4,6.2z"/>
</g>
</svg>
