<?xml version="1.0" encoding="utf-8"?>
<!-- Generator: Adobe Illustrator 21.0.2, SVG Export Plug-In . SVG Version: 6.00 Build 0)  -->
<svg version="1.1" id="Layer_1" xmlns="http://www.w3.org/2000/svg" xmlns:xlink="http://www.w3.org/1999/xlink" x="0px" y="0px"
	 viewBox="0 0 542 654" style="enable-background:new 0 0 542 654;" xml:space="preserve">
<style type="text/css">
	.st0{fill:#FFFFFF;}
</style>
<g>
	<path class="st0" d="M522.8,212.2c-10.9,10.7-21.8,20.6-31.7,31.3c-25,27-38.1,59.1-38.3,96c-0.2,34.4,10,65.4,30.7,93
		c13.5,18,29.4,33.1,50.5,41.7c2.5,1,5,1.9,8.1,3.1c-2.8,7.6-5.3,15.2-8.3,22.5c-17.4,41.9-39.9,80.8-70.6,114.5
		c-5.7,6.3-12.2,12-18.8,17.4c-22.5,18.3-47.8,25.2-76.2,17c-14.2-4.1-28.2-8.8-42.4-13.1c-14.6-4.5-29.3-8.1-44.6-8.5
		c-19-0.5-36.6,5.2-54.1,11.7c-13.3,4.9-26.7,10-40.5,13.3c-21.7,5.2-41.3-1.5-59.3-13.7c-18.2-12.3-32.5-28.4-45-46.1
		c-31.2-44.5-54.9-92.6-69.5-145.1c-13-46.7-16.6-94-9.3-142c6.4-42.3,22.2-80.5,51.9-112c30.8-32.7,68.8-46.1,113.3-41.7
		c22.3,2.2,43.6,8.7,65,14.9c8.9,2.6,17.9,4.5,26.8,6.7c12.7,3.2,25.2,1.7,37.4-1.9c17.4-5.1,34.7-10.9,52.1-16.1
		c27.6-8.2,55.4-10.2,83.7-3.7c32.5,7.4,58.3,25.6,80,50.2C516.9,205.2,519.9,208.9,522.8,212.2z"/>
	<path class="st0" d="M392.4,0.1c0.6,5,1.6,9.9,1.6,14.8c-0.4,35.5-12.5,66.9-34.4,94.6c-12,15.3-26.2,28.3-43.3,37.8
		c-12.2,6.8-25.6,8.8-39.1,10.5c-4.4,0.5-8.8,0.9-13.3,1.3C264.6,76.7,307.4,16.8,392.4,0.1z"/>
</g>
</svg>
