<?xml version="1.0" encoding="utf-8"?>
<!-- Generator: Adobe Illustrator 21.0.2, SVG Export Plug-In . SVG Version: 6.00 Build 0)  -->
<svg version="1.1" id="Layer_1" xmlns="http://www.w3.org/2000/svg" xmlns:xlink="http://www.w3.org/1999/xlink" x="0px" y="0px"
	 viewBox="0 0 11.6 15.2" style="enable-background:new 0 0 11.6 15.2;" xml:space="preserve">
<style type="text/css">
	.st0{fill:#FFFFFF;}
</style>
<path class="st0" d="M9.6,2.8L9.6,2.8C9,1.2,7.5,0.1,5.8,0.1S2.6,1.2,2,2.8l0,0c-1.1,0-2,0.9-2,2v8.4c0,1.1,0.9,2,2,2h7.6
	c1.1,0,2-0.9,2-2V4.8C11.6,3.7,10.7,2.8,9.6,2.8z M5.8,1.4c1,0,1.9,0.5,2.4,1.4H3.4C3.9,2,4.8,1.4,5.8,1.4z M10.3,13.1
	c0,0.4-0.3,0.7-0.7,0.7H2c-0.4,0-0.7-0.3-0.7-0.7V4.8c0-0.4,0.3-0.7,0.7-0.7h7.6c0.4,0,0.7,0.3,0.7,0.7V13.1z"/>
</svg>
