<?xml version="1.0" encoding="utf-8"?>
<!-- Generator: Adobe Illustrator 21.0.2, SVG Export Plug-In . SVG Version: 6.00 Build 0)  -->
<svg version="1.1" id="Layer_1" xmlns="http://www.w3.org/2000/svg" xmlns:xlink="http://www.w3.org/1999/xlink" x="0px" y="0px"
	 viewBox="0 0 12.8 16.4" style="enable-background:new 0 0 12.8 16.4;" xml:space="preserve">
<style type="text/css">
	.st0{fill:#FFFFFF;}
</style>
<path class="st0" d="M10.2,3.4L10.2,3.4C9.6,1.8,8.1,0.7,6.4,0.7S3.2,1.8,2.6,3.4h0c-1.1,0-2,0.9-2,2v8.4c0,1.1,0.9,2,2,2h7.6
	c1.1,0,2-0.9,2-2V5.4C12.2,4.3,11.3,3.4,10.2,3.4z M6.4,2c1,0,1.9,0.5,2.4,1.4H4C4.5,2.6,5.4,2,6.4,2z M10.9,13.7
	c0,0.4-0.3,0.7-0.7,0.7H2.6c-0.4,0-0.7-0.3-0.7-0.7V5.4c0-0.4,0.3-0.7,0.7-0.7h7.6c0.4,0,0.7,0.3,0.7,0.7V13.7z"/>
</svg>
