<?xml version="1.0" encoding="utf-8"?>
<!-- Generator: Adobe Illustrator 21.0.2, SVG Export Plug-In . SVG Version: 6.00 Build 0)  -->
<svg version="1.1" id="Layer_1" xmlns="http://www.w3.org/2000/svg" xmlns:xlink="http://www.w3.org/1999/xlink" x="0px" y="0px"
	 viewBox="0 0 14 15" style="enable-background:new 0 0 14 15;" xml:space="preserve">
<style type="text/css">
	.st0{fill:#147BCD;}
	.st1{fill:none;stroke:#147BCD;stroke-miterlimit:10;}
	.st2{fill:#1F81CF;}
	.st3{fill:#1F81CF;stroke:#1F81CF;stroke-width:0.5;stroke-miterlimit:10;}
</style>
<g>
	<g>
		<path class="st3" d="M8.2,1.1c0.2,0,0.3,0.1,0.3,0.3c0,0.2,0,0.3,0,0.5c0,0.1,0.1,0.2,0.2,0.3c0.4,0.1,0.7,0.2,1,0.4
			c0.1,0.1,0.2,0,0.3,0c0.1-0.1,0.3-0.3,0.4-0.4c0.1-0.1,0.2-0.1,0.3,0c0.7,0.5,1.2,1,1.7,1.7c0.1,0.1,0.1,0.2,0,0.3
			c-0.1,0.1-0.3,0.3-0.4,0.4c-0.1,0.1-0.1,0.2,0,0.3c0.2,0.3,0.3,0.7,0.4,1c0,0.1,0.1,0.2,0.3,0.2c0.2,0,0.3,0,0.5,0
			c0.2,0,0.3,0.1,0.3,0.3c0,0.1,0,2.2,0,2.3c0,0.2-0.1,0.3-0.3,0.3c-0.2,0-0.3,0-0.5,0c-0.1,0-0.2,0.1-0.3,0.2
			c-0.1,0.4-0.2,0.7-0.4,1c-0.1,0.1,0,0.2,0,0.3c0.1,0.1,0.3,0.3,0.4,0.4c0.1,0.1,0.1,0.2,0,0.3c-0.5,0.7-1,1.2-1.7,1.7
			c-0.1,0.1-0.2,0.1-0.3,0c-0.1-0.1-0.3-0.3-0.4-0.4c-0.1-0.1-0.2-0.1-0.3,0c-0.3,0.2-0.7,0.3-1,0.4c-0.1,0-0.2,0.1-0.2,0.3
			c0,0.2,0,0.3,0,0.5c0,0.2-0.1,0.3-0.3,0.3c-0.1,0-2.2,0-2.3,0c-0.2,0-0.3-0.1-0.3-0.3c0-0.2,0-0.3,0-0.5c0-0.1-0.1-0.2-0.2-0.3
			c-0.4-0.1-0.7-0.2-1-0.4c-0.1-0.1-0.2,0-0.3,0c-0.1,0.1-0.3,0.3-0.4,0.4c-0.1,0.1-0.2,0.1-0.3,0c-0.7-0.5-1.2-1-1.7-1.7
			c-0.1-0.1-0.1-0.2,0-0.3c0.1-0.1,0.3-0.3,0.4-0.4c0.1-0.1,0.1-0.2,0-0.3c-0.2-0.3-0.3-0.7-0.4-1c0-0.1-0.1-0.2-0.3-0.2
			c-0.2,0-0.3,0-0.5,0c-0.2,0-0.3-0.1-0.3-0.3c0-0.1,0-2.2,0-2.3c0-0.2,0.1-0.3,0.3-0.3c0.2,0,0.3,0,0.5,0c0.1,0,0.2-0.1,0.3-0.2
			c0.1-0.4,0.2-0.7,0.4-1c0.1-0.1,0-0.2,0-0.3C1.9,4.5,1.8,4.3,1.7,4.2C1.6,4.1,1.5,4,1.6,3.8c0.5-0.7,1-1.2,1.7-1.7
			c0.1-0.1,0.2-0.1,0.3,0C3.8,2.3,4,2.4,4.1,2.6c0.1,0.1,0.2,0.1,0.3,0c0.3-0.2,0.7-0.3,1-0.4c0.1,0,0.2-0.1,0.2-0.3
			c0-0.2,0-0.3,0-0.5c0-0.2,0.1-0.3,0.3-0.3C5.9,1.1,8.1,1.1,8.2,1.1z M10.5,12.6C10.6,12.5,10.6,12.5,10.5,12.6
			c0.6-0.4,1.1-0.9,1.5-1.4c0.1-0.1,0.1-0.1,0-0.2c-0.1-0.1-0.3-0.3-0.4-0.4c-0.1-0.1-0.1-0.2-0.1-0.4c0.2-0.4,0.4-0.9,0.5-1.3
			c0-0.2,0.1-0.2,0.3-0.2c0.2,0,0.4,0,0.6,0c0.1,0,0.2,0,0.2-0.2c0.1-0.6,0.1-1.3,0-1.9c0-0.1-0.1-0.2-0.2-0.2c-0.2,0-0.4,0-0.6,0
			c-0.1,0-0.2-0.1-0.3-0.2c-0.1-0.5-0.3-0.9-0.6-1.3c-0.1-0.1-0.1-0.2,0-0.3c0.1-0.1,0.3-0.3,0.4-0.4C12.1,4,12.1,4,12,3.9
			c-0.4-0.5-0.8-1-1.3-1.3c-0.1-0.1-0.2-0.1-0.3,0C10.3,2.7,10.1,2.8,10,3C9.9,3.1,9.8,3.1,9.7,3C9.2,2.8,8.8,2.6,8.3,2.4
			c-0.1,0-0.2-0.1-0.2-0.3c0-0.2,0-0.4,0-0.6c0-0.1-0.1-0.2-0.2-0.2c-0.6-0.1-1.2-0.1-1.9,0c-0.1,0-0.2,0.1-0.2,0.2
			c0,0.2,0,0.3,0,0.5c0,0.2-0.1,0.3-0.2,0.3C5.2,2.6,4.8,2.7,4.4,3C4.2,3.1,4.1,3.1,4,2.9C3.9,2.8,3.7,2.7,3.6,2.5
			c-0.1-0.1-0.1-0.1-0.2,0C2.8,2.9,2.4,3.3,2,3.9C1.9,3.9,1.9,4,2,4.1c0.1,0.1,0.3,0.3,0.4,0.4c0.1,0.1,0.1,0.2,0.1,0.3
			C2.2,5.3,2.1,5.7,1.9,6.2c0,0.1-0.1,0.2-0.3,0.2c-0.2,0-0.4,0-0.6,0c-0.1,0-0.2,0-0.2,0.2c-0.1,0.6-0.1,1.3,0,1.9
			c0,0.1,0.1,0.2,0.2,0.2c0.2,0,0.4,0,0.6,0c0.1,0,0.2,0.1,0.3,0.2c0.1,0.5,0.3,0.9,0.6,1.4c0.1,0.1,0.1,0.2,0,0.3
			c-0.1,0.1-0.3,0.3-0.4,0.4C1.9,11,1.9,11,2,11.1c0.4,0.5,0.8,1,1.4,1.4c0.1,0.1,0.2,0.1,0.2,0C3.7,12.3,3.9,12.2,4,12
			c0.1-0.1,0.2-0.1,0.3,0c0.4,0.2,0.9,0.4,1.4,0.6c0.1,0,0.2,0.1,0.2,0.3c0,0.2,0,0.4,0,0.6c0,0.1,0,0.2,0.2,0.2
			c0.6,0.1,1.3,0.1,1.9,0c0.1,0,0.2-0.1,0.2-0.2c0-0.2,0-0.3,0-0.5c0-0.2,0.1-0.3,0.3-0.4c0.4-0.1,0.9-0.3,1.2-0.5
			c0.2-0.1,0.3-0.1,0.4,0.1c0.1,0.1,0.3,0.3,0.4,0.4C10.4,12.5,10.5,12.6,10.5,12.6z"/>
		<path class="st3" d="M10.3,7.5c0,1.8-1.5,3.3-3.3,3.3c-1.8,0-3.3-1.5-3.3-3.3c0-1.8,1.5-3.3,3.3-3.3C8.8,4.2,10.3,5.7,10.3,7.5z
			 M10,7.5c0-1.7-1.3-3-3-3c-1.7,0-3,1.3-3,3c0,1.7,1.3,3,3,3C8.7,10.5,10,9.2,10,7.5z"/>
	</g>
</g>
</svg>
