<?xml version="1.0" encoding="utf-8"?>
<!-- Generator: Adobe Illustrator 21.0.2, SVG Export Plug-In . SVG Version: 6.00 Build 0)  -->
<svg version="1.1" id="Layer_1" xmlns="http://www.w3.org/2000/svg" xmlns:xlink="http://www.w3.org/1999/xlink" x="0px" y="0px"
	 viewBox="0 0 14 15" style="enable-background:new 0 0 14 15;" xml:space="preserve">
<style type="text/css">
	.st0{fill:#1F81CF;}
</style>
<path class="st0" d="M13.3,3.7l-3.6-2L7.2,0.3H6.8L0.7,3.7L0.5,4.1V11l0.2,0.4l5.8,3.3h0.9l5.8-3.3l0.2-0.4V4.1L13.3,3.7z M7,7.9
	L4.7,6.3l5-3.6l2.5,1.5L7,7.9z M8.9,2.2L4,5.7L1.7,4.1l5.3-3L8.9,2.2z M1.4,10.8V4.9l5.2,3.7v5.1L1.4,10.8z M7.4,8.7L12.6,5v5.8
	l-5.2,3C7.4,13.8,7.4,8.7,7.4,8.7z"/>
</svg>
