<?xml version="1.0" encoding="utf-8"?>
<!-- Generator: Adobe Illustrator 21.0.2, SVG Export Plug-In . SVG Version: 6.00 Build 0)  -->
<svg version="1.1" id="Layer_1" xmlns="http://www.w3.org/2000/svg" xmlns:xlink="http://www.w3.org/1999/xlink" x="0px" y="0px"
	 viewBox="0 0 14 15" style="enable-background:new 0 0 14 15;" xml:space="preserve">
<style type="text/css">
	.st0{fill:#147BCD;}
	.st1{fill:none;stroke:#147BCD;stroke-miterlimit:10;}
	.st2{fill:#1F81CF;}
</style>
<g>
	<g>
		<path class="st2" d="M7,14c-3.6,0-6.5-2.9-6.5-6.5S3.4,1,7,1s6.5,2.9,6.5,6.5S10.6,14,7,14z M7,1.9c-3.1,0-5.6,2.5-5.6,5.6
			s2.5,5.6,5.6,5.6s5.6-2.5,5.6-5.6S10.1,1.9,7,1.9z"/>
	</g>
	<g>
		<path class="st2" d="M8.9,11.6L8.1,9.4l0,0c0.7-0.5,1.2-1.5,1.2-2.6c0-1.7-1-3-2.3-3s-2.3,1.4-2.3,3c0,1.1,0.5,2.1,1.2,2.6l0,0
			l-0.8,2.3H2.9l1,1l2.4,0.9L7,13.3l0.8,0.3l2.4-0.9l1-1H8.9z"/>
	</g>
</g>
</svg>
